# xmcd
#
# Track frame offsets: 
#        150
#        16230
#        26635
#        40567
#        50922
#        60977
#        73362
#        89295
#        98887
#        113237
#
# Disc length: 1660 seconds
#
# Revision: 1
# Processed by: cddbd v1.5.2PL0 Copyright (c) Steve Scherf et al.
# Submitted via: ExactAudioCopyFreeDBPlugin 1.0
#
DISCID=81067a0a
DTITLE=Various Artist - Winter Wonderland
DYEAR=1994
DGENRE=Country
TTITLE0=Doug Stone - O' Little Town of Bethlehem
TTITLE1=Tanya Tucker - Silver Bells
TTITLE2=Ricky Van Shelton - I'll Be Home for Christmas
TTITLE3=George Jones - Jingle Bells
TTITLE4=Tammy Wynette - Joy to the World
TTITLE5=Dolly Parton - We Three Kings
TTITLE6=Ricky Skaggs - New Star Shinning
TTITLE7=Marty Robbins - Santa Claus is Coming to Town
TTITLE8=Prescott Brown - Christmas Call
TTITLE9=Anita Perras - Winter Wonderland
EXTD=
EXTT0=
EXTT1=
EXTT2=
EXTT3=
EXTT4=
EXTT5=
EXTT6=
EXTT7=
EXTT8=
EXTT9=
PLAYORDER=
